<?xml version="1.0" standalone="no"?>
<!DOCTYPE svg PUBLIC "-//W3C//DTD SVG 20010904//EN"
 "http://www.w3.org/TR/2001/REC-SVG-20010904/DTD/svg10.dtd">
<svg version="1.0" xmlns="http://www.w3.org/2000/svg"
 width="1280.000000pt" height="905.000000pt" viewBox="0 0 1280.000000 905.000000"
 preserveAspectRatio="xMidYMid meet">
<metadata>
Created by potrace 1.15, written by Peter Selinger 2001-2017
</metadata>
<g transform="translate(0.000000,905.000000) scale(0.100000,-0.100000)"
fill="#000000" stroke="none">
<path d="M5910 8238 c-52 -5 -105 -9 -117 -9 -13 -1 -23 -6 -23 -11 0 -5 -4
-7 -10 -3 -8 5 -136 -8 -195 -19 -11 -3 -28 -5 -39 -5 -13 -1 -16 -6 -12 -17
5 -14 4 -15 -7 -5 -24 19 -181 -14 -422 -90 -71 -23 -136 -43 -142 -45 -7 -2
-10 -11 -7 -21 4 -14 4 -15 -4 -4 -10 14 -34 10 -92 -17 -19 -9 -41 -17 -47
-18 -32 -5 -93 -41 -94 -54 0 -10 -2 -11 -5 -3 -4 9 -11 9 -30 1 -13 -6 -24
-15 -24 -19 0 -5 -6 -6 -13 -3 -7 2 -28 -7 -47 -21 -19 -14 -42 -25 -52 -25
-10 0 -18 -4 -18 -10 0 -5 -3 -9 -7 -8 -17 5 -113 -48 -114 -62 0 -10 -2 -11
-6 -3 -3 9 -12 8 -31 -6 -15 -10 -49 -31 -76 -47 -26 -16 -56 -33 -65 -39 -19
-12 -113 -77 -156 -108 -89 -65 -151 -111 -155 -116 -3 -3 -27 -24 -55 -46
-87 -70 -220 -195 -207 -195 4 0 -6 -8 -23 -19 -16 -10 -57 -48 -90 -85 -33
-37 -71 -80 -85 -96 -50 -55 -105 -123 -109 -132 -1 -5 -13 -19 -25 -31 -11
-12 -30 -35 -41 -51 -11 -15 -34 -46 -52 -69 -17 -23 -29 -45 -27 -49 3 -4 0
-8 -6 -8 -7 0 -10 -7 -6 -15 3 -8 0 -14 -7 -12 -7 1 -12 -8 -12 -20 0 -11 -4
-25 -8 -29 -4 -5 -5 0 -1 11 7 20 7 20 -14 1 -12 -11 -22 -23 -22 -28 0 -5
-11 -26 -25 -49 -14 -22 -23 -45 -19 -51 4 -6 3 -8 -3 -5 -9 6 -41 -43 -109
-168 -27 -48 -31 -63 -22 -80 10 -17 9 -18 -4 -8 -13 11 -24 -8 -82 -137 -67
-153 -75 -177 -54 -164 7 4 8 3 4 -5 -4 -6 -12 -9 -17 -6 -8 6 -13 -11 -12
-42 1 -7 -3 -13 -7 -13 -10 0 -40 -85 -40 -112 0 -10 -5 -18 -11 -18 -6 0 -9
-9 -6 -20 3 -10 1 -20 -4 -22 -5 -2 -10 -12 -12 -23 -2 -11 -7 -29 -11 -40
-17 -45 -25 -72 -30 -105 -10 -58 -15 -82 -25 -114 -9 -30 -26 -111 -35 -171
-2 -16 -7 -37 -11 -46 -3 -10 -1 -20 5 -24 9 -6 9 -9 1 -15 -13 -7 -18 -37
-26 -132 -2 -32 -7 -75 -10 -95 -4 -25 -3 -33 3 -25 7 11 10 11 15 -3 4 -9 3
-13 -2 -10 -16 10 -23 -15 -9 -32 7 -10 8 -14 1 -10 -15 9 -22 -41 -22 -165
-1 -71 3 -98 12 -98 9 0 9 -2 1 -8 -18 -11 -16 -205 2 -198 7 3 16 1 19 -5 4
-5 1 -8 -6 -7 -18 4 -23 -80 -6 -100 9 -12 9 -14 0 -9 -9 6 -11 -1 -8 -25 2
-18 9 -78 15 -133 6 -55 15 -116 20 -135 9 -36 11 -47 31 -157 8 -47 15 -63
28 -63 11 0 12 -3 4 -8 -8 -5 -10 -21 -6 -45 3 -20 9 -34 14 -31 5 3 6 -2 3
-10 -4 -9 -1 -16 6 -16 7 0 10 -7 6 -16 -3 -8 5 -48 17 -87 13 -40 32 -98 41
-129 10 -32 21 -58 24 -58 4 0 8 -13 9 -30 1 -16 10 -44 20 -62 17 -33 19 -39
22 -59 0 -5 6 -7 13 -3 7 4 8 3 4 -5 -9 -15 15 -71 31 -71 6 0 9 -8 7 -18 -3
-9 4 -38 16 -64 16 -36 25 -46 38 -42 12 4 14 3 4 -3 -10 -8 -11 -15 -1 -36 7
-15 16 -27 21 -27 5 0 7 -4 3 -9 -5 -9 44 -108 68 -139 14 -18 55 -91 72 -129
9 -18 20 -33 25 -33 6 0 10 -5 10 -11 0 -19 81 -130 90 -124 6 3 7 0 5 -8 -7
-16 63 -110 76 -102 5 3 7 0 4 -7 -3 -7 14 -36 38 -63 23 -28 51 -63 61 -78
10 -17 23 -26 32 -23 9 3 14 -1 14 -12 1 -25 27 -55 41 -46 8 4 10 3 5 -5 -5
-7 28 -48 85 -106 51 -52 95 -98 98 -102 3 -5 25 -23 48 -41 23 -18 56 -47 75
-65 18 -18 53 -48 77 -67 24 -19 53 -45 64 -57 11 -13 25 -23 30 -23 5 0 31
-18 57 -40 26 -22 52 -40 58 -40 6 0 12 -6 15 -12 3 -10 10 -10 28 1 21 13 23
12 12 -1 -11 -12 -10 -18 5 -31 9 -8 30 -19 45 -22 15 -4 26 -10 23 -13 -3 -2
5 -12 17 -21 40 -29 84 -51 91 -44 3 3 6 1 6 -5 0 -17 56 -43 77 -36 12 4 14
3 5 -3 -9 -7 -4 -15 18 -31 16 -12 35 -22 41 -22 7 0 41 -16 77 -35 42 -24 71
-34 85 -30 15 4 18 3 9 -3 -9 -6 3 -16 42 -35 30 -15 62 -27 70 -27 8 0 18 -5
22 -11 3 -6 15 -9 25 -6 11 3 17 2 14 -3 -3 -4 8 -12 23 -18 15 -6 56 -22 92
-36 72 -27 137 -49 190 -64 19 -5 44 -13 54 -18 15 -6 18 -4 12 7 -5 10 -3 9
6 -1 12 -14 145 -53 165 -49 4 1 20 -3 34 -9 14 -5 39 -13 55 -15 16 -3 54
-10 84 -16 30 -6 70 -13 90 -16 19 -2 59 -9 89 -15 68 -13 131 -13 131 0 0 6
4 10 10 10 5 0 7 -6 4 -13 -6 -16 111 -27 293 -27 89 0 113 3 107 13 -5 8 -2
7 9 -2 14 -11 43 -12 135 -8 64 4 129 7 145 7 15 0 27 5 27 11 0 5 -6 7 -12 3
-10 -5 -10 -3 0 7 10 11 15 11 20 2 7 -12 80 -11 157 2 17 3 46 7 65 9 51 6
240 45 251 52 5 3 24 7 42 10 48 6 89 16 107 25 14 8 118 40 147 45 33 6 83
27 83 34 0 5 6 7 13 4 8 -3 24 -1 38 4 13 5 26 9 29 9 3 -1 21 7 40 17 61 32
69 36 85 36 10 0 13 5 9 12 -4 6 -3 8 4 4 15 -9 83 25 75 37 -4 6 1 8 11 4 10
-4 42 6 79 24 34 17 77 38 95 47 17 9 32 20 32 24 0 5 10 8 23 8 12 0 34 11
49 25 15 14 30 25 34 25 21 0 84 37 90 53 3 9 10 15 15 12 11 -7 119 63 126
82 3 7 9 10 14 7 5 -3 25 7 43 23 35 29 43 35 125 93 28 19 55 45 62 57 7 12
16 20 20 17 4 -2 12 4 18 13 5 10 13 18 18 18 4 0 7 4 5 8 -1 5 2 6 7 3 12 -8
33 18 23 29 -4 5 -2 5 5 1 11 -6 83 47 92 67 1 4 10 13 18 20 39 31 90 86 85
91 -3 3 -1 6 5 6 11 0 83 65 83 74 0 3 21 26 47 51 26 25 43 45 38 45 -5 0 -2
6 7 12 8 7 47 52 86 100 51 61 70 92 66 105 -5 15 -4 16 5 3 10 -14 12 -13 15
10 0 6 6 14 12 18 22 15 65 82 59 92 -3 5 0 10 9 10 22 0 142 200 128 215 -4
5 -1 5 6 1 7 -4 12 -1 12 8 0 9 5 16 10 16 6 0 10 5 10 11 0 6 9 24 21 40 11
16 18 36 16 44 -3 7 1 16 10 19 8 4 13 13 10 20 -3 8 0 17 8 19 20 8 68 119
54 127 -6 5 -3 9 9 12 18 5 45 65 47 103 0 6 6 15 13 20 17 14 104 266 98 288
-2 9 0 15 5 11 5 -3 10 1 11 8 0 7 2 18 2 23 1 6 4 15 7 20 3 6 12 29 19 53
12 37 12 45 -1 54 -12 8 -11 9 2 5 12 -4 18 9 28 57 7 33 17 77 22 96 6 24 5
36 -4 42 -8 5 -8 8 -1 8 16 0 36 80 20 80 -8 0 -8 2 1 8 14 9 37 134 30 162
-3 11 -1 18 4 14 5 -3 10 7 11 23 0 15 3 39 4 53 6 51 13 250 14 400 1 254
-13 459 -34 472 -8 6 -7 8 1 8 14 0 6 31 -11 42 -7 5 -7 8 2 8 13 0 10 51 -5
90 -3 8 -5 24 -4 35 3 29 -99 428 -111 440 -8 7 -8 5 -3 -5 5 -8 4 -12 0 -8
-5 5 -9 23 -10 41 -3 40 -36 147 -44 143 -3 -2 -7 9 -8 25 -1 16 -9 42 -17 57
-14 26 -26 56 -32 77 -7 28 -68 151 -78 157 -6 4 -8 8 -3 8 7 0 -11 39 -75
165 -12 22 -26 45 -32 50 -6 6 -12 16 -14 24 -1 7 -18 37 -37 67 -19 30 -32
54 -29 54 2 0 -4 10 -15 21 -11 12 -27 37 -36 55 -22 47 -65 95 -77 87 -7 -4
-8 -1 -4 6 9 14 -25 68 -77 124 -19 20 -32 37 -28 37 3 1 -3 8 -15 18 -11 9
-22 22 -24 27 -3 6 -10 17 -17 25 -7 8 -19 24 -28 35 -13 17 -16 18 -26 5 -9
-13 -10 -12 -5 3 9 28 -79 125 -289 322 -22 21 -60 54 -85 74 -24 20 -64 55
-90 78 -25 24 -49 43 -54 43 -5 0 -16 7 -25 15 -46 42 -94 77 -166 120 -44 27
-90 57 -102 68 -13 11 -29 17 -38 13 -9 -3 -14 -2 -11 2 3 5 -3 15 -13 24 -21
18 -131 71 -148 71 -7 0 -11 3 -10 6 1 3 -2 8 -8 10 -5 2 -28 15 -49 29 -22
13 -44 25 -50 26 -6 1 -46 19 -88 40 -42 21 -83 39 -90 40 -7 1 -19 5 -25 9
-7 5 -13 5 -13 1 0 -4 -6 -1 -12 8 -14 17 -85 44 -105 40 -7 -2 -13 1 -13 6 0
5 -6 9 -12 9 -7 1 -38 11 -68 22 -56 22 -176 58 -219 67 -14 3 -28 7 -32 10
-4 2 -29 9 -56 15 -26 5 -66 14 -88 19 -130 29 -129 29 -147 13 -15 -13 -16
-13 -11 7 5 19 2 22 -28 20 -19 -2 -42 1 -52 5 -9 4 -30 5 -47 3 -16 -2 -27
-1 -24 4 3 4 -10 9 -28 9 -34 2 -46 3 -138 13 -88 11 -506 13 -610 4z m390
-18 c0 -5 -2 -10 -4 -10 -3 0 -8 5 -11 10 -3 6 -1 10 4 10 6 0 11 -4 11 -10z
m-425 -10 c3 -6 -1 -7 -9 -4 -18 7 -21 14 -7 14 6 0 13 -4 16 -10z m1125 -80
c0 -5 -2 -10 -4 -10 -3 0 -8 5 -11 10 -3 6 -1 10 4 10 6 0 11 -4 11 -10z
m-558 -44 c7 4 8 2 4 -4 -11 -18 41 -27 61 -11 12 10 15 10 9 2 -5 -9 2 -13
26 -14 47 -2 95 -7 153 -18 28 -5 57 -10 65 -10 8 0 39 -5 69 -11 29 -6 60 -9
68 -6 8 3 12 2 9 -2 -2 -4 44 -18 102 -31 59 -12 126 -29 149 -38 23 -8 46
-12 52 -8 6 3 11 2 11 -3 0 -6 51 -27 113 -47 61 -20 138 -48 170 -61 32 -14
63 -22 69 -18 6 4 8 3 5 -3 -4 -7 21 -22 61 -38 37 -15 69 -30 72 -34 8 -10
174 -91 188 -91 6 0 12 -5 12 -11 0 -6 10 -8 23 -5 12 3 16 3 9 0 -17 -8 -5
-24 19 -24 11 0 18 -4 15 -8 -5 -9 62 -47 77 -44 4 1 7 -3 7 -9 0 -6 9 -9 19
-6 12 3 18 0 15 -7 -2 -6 7 -18 20 -26 14 -8 61 -41 106 -73 44 -32 86 -55 92
-51 6 4 8 3 5 -3 -9 -15 29 -47 45 -37 7 4 10 3 5 -1 -9 -10 31 -55 49 -55 6
0 15 -7 18 -16 4 -10 13 -14 28 -10 13 3 17 3 10 0 -10 -5 -10 -9 -1 -20 6 -8
15 -11 20 -8 5 3 6 -2 3 -10 -3 -9 -2 -16 4 -16 5 0 29 -18 52 -40 33 -31 46
-38 53 -28 6 9 7 8 3 -4 -7 -22 122 -151 143 -143 11 4 12 3 1 -10 -12 -14 -7
-20 15 -15 5 1 7 -1 3 -5 -4 -4 17 -35 45 -69 29 -33 62 -72 72 -85 11 -13 28
-32 38 -43 9 -10 17 -21 17 -25 1 -13 38 -53 48 -53 6 0 14 -9 17 -20 4 -11
11 -17 17 -14 7 4 8 2 4 -4 -4 -6 15 -42 41 -79 57 -81 107 -160 141 -227 14
-26 32 -50 39 -53 7 -3 11 -8 9 -12 -3 -3 20 -54 49 -111 41 -82 57 -104 72
-102 14 2 15 1 4 -6 -11 -8 -8 -22 14 -78 40 -100 47 -114 56 -109 4 3 5 -4 2
-15 -3 -11 0 -20 6 -20 6 0 10 -3 10 -7 -1 -5 0 -11 1 -15 1 -5 3 -11 4 -15
16 -73 30 -113 38 -113 5 0 6 -4 3 -10 -3 -5 -1 -19 6 -31 6 -12 13 -36 16
-53 3 -17 10 -40 16 -51 6 -11 14 -38 19 -60 4 -22 19 -94 33 -160 27 -129 30
-144 41 -220 3 -27 12 -56 18 -64 6 -9 7 -12 1 -9 -7 4 -9 -6 -7 -28 2 -19 7
-34 11 -34 3 0 7 -44 9 -97 2 -63 7 -100 15 -105 7 -5 8 -8 1 -8 -7 0 -11 -65
-12 -205 -1 -188 0 -205 16 -206 16 -1 16 -2 0 -6 -19 -5 -19 -5 -23 -39 -10
-98 -17 -154 -21 -182 -3 -19 0 -40 7 -48 6 -8 9 -17 5 -21 -3 -3 -6 -1 -6 5
0 7 -4 12 -10 12 -5 0 -10 -11 -10 -24 0 -39 -51 -302 -67 -346 -4 -8 -8 -23
-9 -32 -2 -10 -17 -57 -34 -104 -17 -48 -29 -92 -28 -98 1 -6 -5 -27 -14 -46
-27 -61 -98 -247 -98 -259 0 -6 -4 -11 -8 -11 -11 0 -33 -61 -26 -72 3 -5 0
-7 -7 -6 -6 2 -16 -10 -22 -27 -5 -16 -16 -37 -24 -46 -8 -9 -15 -26 -16 -38
-1 -11 -7 -23 -14 -25 -13 -5 -50 -85 -45 -98 1 -5 -2 -8 -8 -8 -5 0 -27 -30
-50 -67 -22 -38 -60 -97 -85 -132 -25 -34 -42 -68 -38 -74 3 -5 1 -7 -5 -4 -5
4 -21 -12 -35 -35 -14 -24 -46 -65 -72 -92 -25 -27 -44 -55 -41 -63 3 -7 2
-12 -2 -10 -11 3 -72 -67 -72 -82 0 -7 -4 -10 -9 -7 -5 3 -20 -9 -34 -27 -13
-17 -55 -62 -92 -99 -36 -37 -64 -71 -61 -77 3 -5 -2 -8 -12 -7 -9 0 -16 -5
-15 -11 2 -7 -1 -12 -5 -10 -7 2 -75 -54 -171 -141 -20 -17 -43 -34 -53 -37
-9 -3 -23 -17 -32 -30 -9 -14 -21 -25 -27 -25 -6 0 -28 -13 -48 -29 -49 -39
-292 -201 -302 -201 -4 0 -36 -17 -70 -38 -35 -20 -99 -55 -141 -77 -42 -21
-74 -43 -71 -49 4 -5 0 -7 -10 -3 -8 3 -32 -3 -53 -14 -21 -10 -46 -19 -55
-19 -9 0 -24 -9 -34 -20 -10 -11 -21 -17 -25 -15 -12 7 -110 -36 -104 -46 3
-5 -2 -6 -10 -3 -19 7 -85 -13 -110 -35 -11 -9 -17 -11 -13 -5 7 13 -51 6 -59
-7 -3 -5 -14 -9 -25 -9 -11 0 -18 -3 -16 -7 3 -5 -5 -8 -16 -9 -41 -2 -92 -15
-95 -25 -2 -5 -7 -7 -12 -4 -4 3 -61 -7 -127 -21 -65 -14 -129 -27 -143 -29
-14 -1 -47 -6 -75 -10 -187 -26 -265 -30 -515 -30 -234 1 -287 4 -445 25 -38
6 -86 12 -105 14 -40 5 -69 11 -157 29 -38 8 -63 10 -63 4 0 -5 -7 -4 -15 3
-8 6 -47 21 -87 31 -40 11 -82 22 -93 25 -11 3 -31 7 -44 9 -13 2 -27 7 -30
12 -11 15 -119 46 -131 38 -8 -5 -11 -4 -7 2 6 9 -59 36 -89 38 -6 0 -18 5
-25 12 -8 6 -38 21 -68 33 -56 22 -117 51 -161 76 -14 7 -31 12 -38 9 -7 -3
-10 0 -7 5 6 9 -8 14 -27 11 -5 0 -8 3 -8 8 0 4 -38 28 -85 51 -47 24 -88 47
-91 52 -10 15 -23 8 -18 -9 5 -14 4 -15 -4 -4 -6 8 -8 19 -6 25 2 6 -8 17 -23
23 -38 16 -66 35 -76 51 -4 6 -14 12 -22 12 -8 0 -26 11 -41 25 -39 36 -94 67
-94 52 0 -7 -8 2 -19 18 -10 17 -29 37 -41 45 -13 8 -38 28 -57 44 -18 15 -33
26 -33 24 0 -4 -87 75 -203 185 -45 42 -86 77 -91 77 -5 0 -7 3 -3 6 3 3 -21
32 -54 65 -32 32 -59 62 -59 67 0 4 -15 23 -33 42 -18 19 -46 53 -62 75 -16
22 -35 46 -42 53 -7 7 -13 18 -13 23 0 5 -8 9 -17 9 -9 0 -14 3 -10 6 3 3 -16
37 -44 74 -27 37 -49 71 -49 74 0 3 -15 27 -34 53 -18 27 -48 75 -65 107 -18
33 -41 70 -52 84 -10 14 -19 31 -19 38 0 8 -8 14 -17 15 -11 0 -13 3 -6 6 10
4 10 10 -2 26 -8 12 -15 29 -15 38 0 9 -11 28 -24 42 -13 14 -22 28 -19 31 8
8 -23 46 -32 38 -4 -4 -5 1 -2 10 6 18 -39 130 -55 136 -4 2 -6 7 -3 12 7 11
-16 61 -26 55 -4 -3 -5 4 -2 15 3 11 0 20 -6 20 -6 0 -8 7 -4 17 5 12 3 14 -7
8 -10 -6 -12 -4 -7 8 4 10 1 30 -5 45 -6 15 -12 34 -14 42 -1 8 -9 39 -18 67
-40 133 -47 159 -50 178 -1 11 -7 19 -13 18 -6 -1 -9 6 -6 16 2 9 -3 55 -11
100 -9 46 -16 85 -16 88 0 2 -4 1 -10 -2 -6 -3 -7 1 -4 9 4 10 1 16 -7 16 -10
0 -11 2 -2 8 15 9 5 92 -11 92 -8 0 -8 3 0 8 7 5 7 32 -2 92 -7 47 -14 118
-15 158 -2 62 -4 72 -18 67 -12 -4 -12 -2 2 9 10 8 14 17 9 20 -5 3 -7 22 -5
42 2 24 -1 40 -9 45 -9 6 -9 9 -1 9 8 0 11 25 10 80 -1 44 0 80 3 80 3 0 5 30
6 68 1 67 9 168 21 272 4 30 7 71 7 90 1 19 4 37 7 40 3 3 16 55 28 115 20
102 74 312 107 413 8 24 12 48 9 53 -4 5 -1 9 5 9 7 0 10 6 7 14 -3 8 -2 16 2
18 5 2 18 25 29 51 12 26 17 45 12 42 -5 -3 4 20 20 52 16 32 52 105 80 163
86 174 113 225 121 230 4 3 11 18 14 33 4 15 11 27 16 27 5 0 9 4 9 10 0 5 27
48 60 95 57 82 73 114 48 99 -7 -4 -8 -3 -4 5 4 6 11 9 16 6 7 -4 112 129 116
148 1 4 2 12 3 17 0 6 5 9 9 8 9 -3 62 51 62 63 0 4 25 32 56 63 34 35 52 61
48 69 -4 6 -4 9 1 5 10 -9 40 21 40 40 0 8 8 16 19 18 24 3 79 60 71 74 -3 5
0 8 7 5 15 -5 154 122 150 137 -1 5 2 7 8 3 5 -3 27 10 47 30 21 20 50 44 65
53 16 9 31 24 34 34 3 10 8 17 12 16 19 -6 130 78 124 94 -1 4 1 7 5 7 20 -3
35 4 76 35 25 19 47 32 50 30 2 -2 10 2 17 11 7 8 16 15 21 15 7 0 109 60 119
70 3 3 27 16 54 30 26 13 50 30 53 37 3 7 9 10 14 7 5 -3 57 18 115 45 58 28
109 51 113 51 4 0 27 10 52 21 24 12 51 23 59 23 8 1 30 10 49 20 19 10 43 19
55 21 12 2 55 15 95 29 109 38 337 95 446 112 17 2 46 7 65 11 19 3 38 6 42 5
5 -1 39 2 77 8 150 21 183 23 368 24 127 0 189 4 185 11 -3 6 0 5 9 -1 21 -16
99 -18 95 -2 -1 7 -1 10 1 5 3 -4 10 -4 15 -1z m-612 -12 c0 -2 -7 -4 -15 -4
-8 0 -15 4 -15 10 0 5 7 7 15 4 8 -4 15 -8 15 -10z m825 -2 c-3 -3 -11 0 -18
7 -9 10 -8 11 6 5 10 -3 15 -9 12 -12z m420 -82 c3 -5 2 -10 -4 -10 -5 0 -13
5 -16 10 -3 6 -2 10 4 10 5 0 13 -4 16 -10z m430 -140 c3 -6 -1 -7 -9 -4 -18
7 -21 14 -7 14 6 0 13 -4 16 -10z m322 -6 c-3 -3 -12 -4 -19 -1 -8 3 -5 6 6 6
11 1 17 -2 13 -5z m28 -14 c3 -5 1 -10 -4 -10 -6 0 -11 5 -11 10 0 6 2 10 4
10 3 0 8 -4 11 -10z m-3675 -220 c0 -5 -5 -10 -11 -10 -5 0 -7 5 -4 10 3 6 8
10 11 10 2 0 4 -4 4 -10z m4130 -44 c0 -11 -19 -15 -25 -6 -3 5 1 10 9 10 9 0
16 -2 16 -4z m-4220 -20 c0 -2 -7 -7 -16 -10 -8 -3 -12 -2 -9 4 6 10 25 14 25
6z m4120 -70 c0 -2 -7 -6 -15 -10 -8 -3 -15 -1 -15 4 0 6 7 10 15 10 8 0 15
-2 15 -4z m230 -6 c0 -5 -2 -10 -4 -10 -3 0 -8 5 -11 10 -3 6 -1 10 4 10 6 0
11 -4 11 -10z m-170 -51 c0 -6 -4 -7 -10 -4 -5 3 -10 11 -10 16 0 6 5 7 10 4
6 -3 10 -11 10 -16z m-4150 7 c0 -3 -4 -8 -10 -11 -5 -3 -10 -1 -10 4 0 6 5
11 10 11 6 0 10 -2 10 -4z m4420 -218 c0 -4 -4 -8 -9 -8 -6 0 -12 4 -15 8 -3
5 1 9 9 9 8 0 15 -4 15 -9z m-5136 -484 c3 -8 2 -12 -4 -9 -6 3 -10 10 -10 16
0 14 7 11 14 -7z m5756 -14 c0 -5 -2 -10 -4 -10 -3 0 -8 5 -11 10 -3 6 -1 10
4 10 6 0 11 -4 11 -10z m-139 -17 c12 -16 12 -17 -2 -6 -9 7 -20 9 -24 5 -5
-4 -5 -1 -1 6 9 16 11 15 27 -5z m-6106 -553 c-3 -5 -11 -10 -16 -10 -6 0 -7
5 -4 10 3 6 11 10 16 10 6 0 7 -4 4 -10z m6630 -110 c3 -5 2 -10 -4 -10 -5 0
-13 5 -16 10 -3 6 -2 10 4 10 5 0 13 -4 16 -10z m-75 -134 c0 -3 -4 -8 -10
-11 -5 -3 -10 -1 -10 4 0 6 5 11 10 11 6 0 10 -2 10 -4z m-6635 -266 c3 -5 1
-10 -4 -10 -6 0 -11 5 -11 10 0 6 2 10 4 10 3 0 8 -4 11 -10z m6885 -104 c0
-3 -4 -8 -10 -11 -5 -3 -10 -1 -10 4 0 6 5 11 10 11 6 0 10 -2 10 -4z m-75
-226 c3 -6 -1 -7 -9 -4 -18 7 -21 14 -7 14 6 0 13 -4 16 -10z m175 -366 c0 -8
-5 -12 -10 -9 -6 4 -8 11 -5 16 9 14 15 11 15 -7z m-7125 -34 c3 -5 1 -10 -4
-10 -6 0 -11 5 -11 10 0 6 2 10 4 10 3 0 8 -4 11 -10z m7143 -345 c-3 -3 -9 2
-12 12 -6 14 -5 15 5 6 7 -7 10 -15 7 -18z m-4 -111 c3 -8 2 -12 -4 -9 -6 3
-10 10 -10 16 0 14 7 11 14 -7z m-7137 -296 c-3 -7 -5 -2 -5 12 0 14 2 19 5
13 2 -7 2 -19 0 -25z m-47 -372 c0 -3 -4 -8 -10 -11 -5 -3 -10 -1 -10 4 0 6 5
11 10 11 6 0 10 -2 10 -4z m30 -116 c0 -5 -7 -7 -15 -4 -8 4 -15 8 -15 10 0 2
7 4 15 4 8 0 15 -4 15 -10z m65 -251 c11 -16 1 -19 -13 -3 -7 8 -8 14 -3 14 5
0 13 -5 16 -11z m360 -499 c-3 -5 -12 -10 -18 -10 -7 0 -6 4 3 10 19 12 23 12
15 0z m5985 -570 c0 -5 -5 -10 -11 -10 -5 0 -7 5 -4 10 3 6 8 10 11 10 2 0 4
-4 4 -10z m-200 -230 c0 -5 -5 -10 -11 -10 -5 0 -7 5 -4 10 3 6 8 10 11 10 2
0 4 -4 4 -10z m-5266 -136 c5 -14 4 -15 -9 -4 -17 14 -19 20 -6 20 5 0 12 -7
15 -16z m231 -14 c3 -6 -1 -7 -9 -4 -18 7 -21 14 -7 14 6 0 13 -4 16 -10z
m4382 -256 c-3 -3 -12 -4 -19 -1 -8 3 -5 6 6 6 11 1 17 -2 13 -5z m-4257 -18
c0 -3 -4 -8 -10 -11 -5 -3 -10 -1 -10 4 0 6 5 11 10 11 6 0 10 -2 10 -4z
m4415 -16 c-3 -5 -12 -10 -18 -10 -7 0 -6 4 3 10 19 12 23 12 15 0z m-4125
-190 c0 -5 -5 -10 -11 -10 -5 0 -7 5 -4 10 3 6 8 10 11 10 2 0 4 -4 4 -10z
m163 -100 c3 -11 1 -18 -4 -14 -5 3 -9 12 -9 20 0 20 7 17 13 -6z m452 -70 c3
-5 1 -10 -4 -10 -6 0 -11 5 -11 10 0 6 2 10 4 10 3 0 8 -4 11 -10z m300 -110
c3 -5 1 -10 -4 -10 -6 0 -11 5 -11 10 0 6 2 10 4 10 3 0 8 -4 11 -10z m2180
-88 c-3 -3 -11 0 -18 7 -9 10 -8 11 6 5 10 -3 15 -9 12 -12z m-2098 -62 c3
-10 2 -11 -4 -4 -4 6 -15 14 -23 17 -11 5 -9 6 4 4 11 -1 21 -9 23 -17z m898
2 c-3 -3 -11 0 -18 7 -9 10 -8 11 6 5 10 -3 15 -9 12 -12z"/>
<path d="M6033 7860 c-28 -3 -55 -9 -59 -13 -9 -9 -6 -82 4 -122 9 -33 1 -32
195 -25 37 1 70 0 72 -2 3 -3 5 -104 5 -226 1 -122 4 -223 8 -226 4 -2 47 -7
95 -10 98 -7 132 3 124 35 -3 10 -1 19 5 19 6 0 8 28 6 70 -2 39 0 70 3 70 3
0 6 24 7 53 2 70 13 200 18 208 2 4 21 3 41 -1 21 -5 76 -11 123 -15 102 -8
105 -6 115 82 7 60 6 63 -17 72 -81 31 -570 51 -745 31z m257 -20 c0 -5 -2
-10 -4 -10 -3 0 -8 5 -11 10 -3 6 -1 10 4 10 6 0 11 -4 11 -10z m-225 -128
c-3 -3 -11 0 -18 7 -9 10 -8 11 6 5 10 -3 15 -9 12 -12z m380 -452 c-3 -5 -12
-10 -18 -10 -7 0 -6 4 3 10 19 12 23 12 15 0z"/>
<path d="M5819 7836 c-2 -2 -29 -7 -59 -10 -108 -12 -114 -20 -93 -131 8 -44
18 -82 22 -85 3 -3 7 -25 9 -49 1 -24 8 -53 14 -65 9 -18 7 -18 -18 5 -53 48
-147 105 -166 101 -5 -1 -8 2 -8 7 0 5 -12 16 -27 24 -16 8 -53 28 -83 45 -30
17 -58 28 -62 26 -4 -3 -8 0 -8 7 0 14 -48 8 -95 -12 -16 -7 -32 -13 -35 -14
-30 -8 -50 -18 -50 -25 0 -5 -7 -7 -15 -4 -8 4 -22 0 -31 -7 -18 -15 -14 -46
14 -111 11 -24 36 -87 57 -140 29 -76 41 -95 54 -91 13 4 14 3 2 -5 -13 -9
-13 -16 1 -49 9 -21 24 -60 34 -86 9 -26 21 -50 25 -53 5 -3 9 -13 9 -23 0
-11 9 -21 21 -24 27 -7 169 44 183 65 7 13 3 40 -19 107 -15 49 -32 88 -37 85
-4 -3 -5 1 -2 9 2 7 0 26 -6 42 -6 15 -9 30 -6 32 2 3 30 -11 60 -31 31 -20
59 -36 62 -36 2 0 10 -4 17 -10 7 -5 53 -39 102 -76 75 -54 95 -64 119 -60 16
4 35 6 43 6 8 0 11 5 8 10 -4 6 -12 7 -18 4 -7 -4 -7 -1 1 7 11 12 15 12 22
-2 7 -12 19 -14 52 -10 35 5 42 10 40 26 -3 17 -2 17 13 5 15 -13 16 -8 10 56
-3 38 -8 76 -10 84 -2 8 -6 38 -9 65 -15 140 -50 372 -59 383 -9 11 -68 17
-78 8z m-119 -136 c0 -5 -5 -10 -11 -10 -5 0 -7 5 -4 10 3 6 8 10 11 10 2 0 4
-4 4 -10z m37 -202 c-3 -8 -6 -5 -6 6 -1 11 2 17 5 13 3 -3 4 -12 1 -19z
m-152 -138 c3 -6 -1 -7 -9 -4 -18 7 -21 14 -7 14 6 0 13 -4 16 -10z m-105
-114 c0 -3 -4 -8 -10 -11 -5 -3 -10 -1 -10 4 0 6 5 11 10 11 6 0 10 -2 10 -4z
m14 -42 c3 -8 2 -12 -4 -9 -6 3 -10 10 -10 16 0 14 7 11 14 -7z m-44 -80 c0
-8 -19 -13 -24 -6 -3 5 1 9 9 9 8 0 15 -2 15 -3z"/>
<path d="M6847 7797 c-2 -6 -16 -75 -32 -152 -15 -77 -40 -203 -55 -280 -21
-105 -25 -145 -17 -160 10 -19 10 -19 18 0 6 17 8 17 8 3 1 -10 9 -19 19 -20
39 -4 48 -6 75 -17 37 -14 80 -14 95 1 13 13 16 44 5 51 -5 2 -2 2 6 0 10 -2
12 5 9 26 -2 17 -1 28 2 26 4 -2 12 18 19 46 8 30 18 48 25 45 6 -3 27 -10 47
-16 26 -9 41 -23 58 -56 13 -24 28 -44 33 -44 5 0 7 -4 3 -9 -3 -5 12 -49 33
-98 27 -60 47 -92 63 -100 110 -53 176 -80 187 -76 28 11 29 38 7 117 -13 43
-27 82 -32 85 -4 3 -8 11 -8 16 0 6 -6 27 -14 48 -15 44 -14 47 25 48 42 2 94
19 94 30 0 6 -5 7 -12 3 -7 -4 -8 -3 -4 5 6 9 11 9 21 1 16 -13 74 50 76 83 1
12 3 31 3 42 2 30 -20 83 -50 118 -32 39 -94 79 -112 72 -7 -3 -10 0 -7 5 6 9
-66 46 -104 54 -9 2 -27 8 -41 13 -53 22 -70 25 -70 12 0 -8 -5 -6 -12 4 -8
11 -60 29 -133 47 -140 36 -221 45 -228 27z m288 -217 c32 -11 68 -18 79 -14
13 3 16 2 9 -3 -8 -6 10 -16 51 -31 43 -15 67 -30 74 -46 8 -18 7 -23 -4 -24
-39 -5 -41 -5 -199 45 l-91 28 10 33 c5 17 10 32 11 32 1 0 28 -9 60 -20z
m-308 -42 c-3 -8 -6 -5 -6 6 -1 11 2 17 5 13 3 -3 4 -12 1 -19z m738 -17 c3
-5 2 -12 -3 -15 -5 -3 -9 1 -9 9 0 17 3 19 12 6z m-181 -499 c2 -4 -5 -9 -17
-9 -17 -2 -19 0 -7 7 18 12 18 12 24 2z"/>
<path d="M4770 7465 c-105 -24 -288 -123 -273 -148 3 -6 2 -7 -4 -4 -19 12
-152 -131 -136 -147 3 -3 1 -6 -5 -6 -6 0 -21 -21 -33 -47 -23 -49 -31 -160
-16 -213 19 -68 115 -161 185 -179 54 -15 112 -20 112 -10 0 5 -5 9 -12 9 -6
0 -9 3 -6 6 4 3 16 1 27 -6 25 -13 111 6 189 40 38 17 43 22 32 35 -9 10 -9
15 -1 15 6 0 11 -4 11 -10 0 -16 18 -12 61 15 22 14 37 30 34 34 -2 5 1 8 9 7
17 -1 107 74 101 84 -3 5 0 12 6 16 8 4 9 3 5 -4 -4 -7 -5 -12 -2 -12 13 0 75
94 69 104 -4 6 -8 18 -10 26 -1 11 2 10 12 -3 12 -17 14 -15 26 20 23 69 14
234 -12 218 -5 -4 -9 -3 -8 2 6 33 -32 91 -55 85 -6 -2 -8 0 -4 4 25 24 -84
75 -172 80 -36 2 -94 -3 -130 -11z m-49 -48 c-10 -9 -11 -8 -5 6 3 10 9 15 12
12 3 -3 0 -11 -7 -18z m79 -111 c0 -3 -4 -8 -10 -11 -5 -3 -10 -1 -10 4 0 6 5
11 10 11 6 0 10 -2 10 -4z m48 -13 c-1 -10 2 -20 7 -22 14 -5 55 -61 67 -91
24 -59 -7 -145 -68 -187 -14 -10 -34 -26 -45 -35 -10 -10 -19 -16 -19 -14 0 3
-16 -2 -35 -10 -40 -16 -100 -18 -141 -4 -70 25 -112 146 -69 199 74 91 153
140 238 148 39 4 57 10 57 19 0 8 3 14 6 14 3 0 4 -8 2 -17z m284 -195 c-7 -7
-12 -8 -12 -2 0 14 12 26 19 19 2 -3 -1 -11 -7 -17z"/>
<path d="M7754 7375 c-57 -18 -86 -34 -79 -45 3 -6 0 -7 -8 -4 -24 9 -94 -98
-107 -163 -12 -57 -6 -143 10 -143 5 0 7 -6 4 -14 -6 -15 15 -62 48 -109 17
-24 22 -26 36 -15 16 12 16 11 2 -6 -14 -17 -10 -23 54 -82 37 -35 72 -61 77
-58 5 3 9 0 9 -6 0 -7 7 -10 14 -7 10 4 13 1 9 -9 -3 -7 0 -14 5 -14 6 0 30
-13 54 -29 53 -35 162 -76 183 -68 8 4 15 2 15 -3 0 -6 5 -10 11 -10 6 0 8 7
5 16 -3 8 -2 13 3 9 5 -3 11 0 13 7 3 9 6 9 12 0 4 -7 2 -12 -3 -12 -6 0 -11
-5 -11 -10 0 -16 110 -1 154 22 52 27 111 87 131 134 9 21 19 66 22 99 9 95
-41 208 -135 307 -19 20 -40 34 -45 31 -6 -3 -7 -1 -4 4 4 6 -17 29 -47 52
-53 41 -73 51 -60 29 4 -7 3 -8 -5 -4 -6 4 -9 11 -6 15 2 5 -18 20 -45 35 -28
15 -50 25 -50 21 0 -3 -10 1 -22 9 -23 14 -130 34 -178 34 -14 0 -44 -6 -66
-13z m176 -19 c0 -3 -4 -8 -10 -11 -5 -3 -10 -1 -10 4 0 6 5 11 10 11 6 0 10
-2 10 -4z m97 -181 c0 -8 -4 -12 -9 -9 -5 3 -6 10 -3 15 9 13 12 11 12 -6z
m-19 -15 c23 -10 57 -30 75 -44 26 -20 36 -23 45 -14 9 9 12 9 12 1 0 -6 -6
-13 -12 -15 -10 -4 -9 -8 2 -20 40 -41 51 -62 57 -103 5 -37 1 -51 -17 -78
-26 -39 -80 -76 -113 -79 -30 -3 -118 22 -138 39 -22 19 -34 16 -18 -4 13 -16
12 -17 -3 -4 -10 7 -16 17 -13 21 2 4 -11 22 -30 40 -18 18 -39 45 -45 61 -7
16 -17 26 -23 22 -5 -3 -7 -2 -4 4 3 5 7 31 8 58 2 37 10 57 28 79 15 15 25
33 23 38 -2 6 4 8 12 5 9 -4 18 -2 21 3 10 17 88 11 133 -10z m-373 -220 c3
-5 1 -10 -4 -10 -6 0 -11 5 -11 10 0 6 2 10 4 10 3 0 8 -4 11 -10z m115 -155
c0 -8 -2 -15 -4 -15 -2 0 -6 7 -10 15 -3 8 -1 15 4 15 6 0 10 -7 10 -15z"/>
<path d="M6005 6900 c-11 -4 -26 -5 -33 -3 -8 4 -10 -1 -6 -13 5 -16 4 -17 -5
-3 -12 18 -60 14 -73 -5 -5 -7 -8 -7 -8 2 0 9 -7 11 -21 7 -12 -4 -36 -9 -53
-11 -17 -2 -42 -6 -56 -9 -14 -3 -41 -8 -60 -12 -49 -7 -244 -64 -250 -72 -3
-3 -11 -6 -17 -7 -7 -1 -20 -2 -28 -2 -8 -1 -15 -11 -15 -21 0 -21 -26 -36
-35 -21 -4 6 1 10 9 10 9 0 16 5 16 10 0 13 -1 13 -65 -11 -30 -11 -53 -25
-50 -30 4 -5 0 -6 -8 -4 -7 3 -50 -12 -94 -35 -44 -22 -84 -40 -88 -40 -3 0
-39 -19 -78 -42 -40 -24 -80 -46 -90 -50 -11 -5 -15 -13 -11 -19 4 -7 3 -9 -2
-6 -6 3 -28 -6 -51 -21 -109 -72 -151 -103 -187 -136 -21 -20 -42 -36 -45 -36
-12 0 -62 -56 -56 -63 3 -4 2 -5 -1 -3 -9 7 -27 -9 -118 -99 -124 -123 -177
-189 -170 -211 4 -13 3 -15 -3 -6 -7 9 -22 -4 -56 -48 -26 -33 -47 -63 -47
-66 0 -3 -12 -23 -27 -43 -16 -20 -33 -45 -40 -56 -77 -126 -81 -137 -63 -165
10 -17 128 -23 148 -7 8 6 12 6 12 -1 0 -9 158 -11 313 -3 12 1 16 6 11 14 -6
10 -4 10 7 0 7 -8 39 -13 72 -13 44 0 56 3 51 13 -6 9 -5 9 7 0 24 -19 470
-18 463 1 -3 8 -1 17 4 20 5 3 9 -2 8 -12 -1 -16 16 -17 204 -19 132 -1 209 2
217 9 7 6 13 6 13 1 0 -5 82 -8 193 -6 105 1 372 2 591 2 305 1 402 4 414 13
12 10 14 10 9 1 -6 -10 81 -11 405 -7 227 2 603 6 836 7 363 2 424 4 432 17
14 21 12 56 -3 72 -6 7 -21 30 -32 51 -11 20 -23 37 -27 37 -5 0 -8 5 -8 10 0
11 -40 69 -95 139 -16 21 -41 53 -55 71 -64 87 -202 230 -222 230 -6 0 -9 3
-5 6 13 14 -148 148 -166 137 -6 -3 -7 -1 -3 5 11 18 -46 63 -62 50 -9 -8 -11
-7 -6 5 4 12 -2 20 -19 26 -14 5 -26 14 -28 18 -4 10 -94 73 -103 73 -3 0 -22
11 -42 25 -22 15 -45 23 -56 20 -12 -4 -16 -2 -13 7 6 16 -58 53 -74 44 -6 -4
-11 -1 -11 6 0 13 -16 21 -125 69 -139 60 -173 72 -187 63 -7 -4 -9 -3 -5 2
11 12 -189 76 -308 99 -16 3 -46 8 -65 12 -19 4 -52 7 -72 8 -21 0 -38 3 -38
7 0 4 -8 7 -17 7 -26 0 -126 11 -140 16 -7 2 -13 0 -13 -5 0 -6 -9 -6 -24 0
-29 11 -373 11 -401 0z m-265 -60 c0 -5 -5 -10 -11 -10 -5 0 -7 5 -4 10 3 6 8
10 11 10 2 0 4 -4 4 -10z m1185 -39 c3 -5 2 -12 -3 -15 -5 -3 -9 1 -9 9 0 17
3 19 12 6z m-695 -81 c0 -5 -2 -10 -4 -10 -3 0 -8 5 -11 10 -3 6 -1 10 4 10 6
0 11 -4 11 -10z m90 6 c0 -11 -19 -15 -25 -6 -3 5 1 10 9 10 9 0 16 -2 16 -4z
m180 -45 c58 -6 116 -13 130 -16 14 -3 50 -10 80 -16 30 -6 62 -12 70 -13 9
-1 20 -5 25 -8 8 -5 101 -32 140 -41 6 -2 15 -5 20 -9 6 -3 26 -9 45 -13 19
-4 38 -12 41 -17 3 -5 22 -10 41 -11 20 -1 34 -5 31 -10 -2 -4 6 -11 19 -16
35 -13 189 -88 223 -108 17 -10 58 -35 93 -55 34 -21 62 -35 62 -31 0 4 6 -1
13 -12 9 -12 19 -15 28 -10 8 5 11 5 7 0 -11 -11 42 -54 59 -48 8 3 13 1 11
-4 -4 -15 95 -94 110 -88 7 2 12 -1 10 -9 -3 -15 110 -126 129 -126 7 0 12 -4
11 -8 -2 -4 28 -45 66 -90 51 -60 72 -79 79 -70 6 10 7 9 4 -2 -2 -8 2 -23 11
-33 8 -9 13 -20 10 -23 -3 -3 -85 -6 -181 -7 -121 0 -174 -4 -169 -11 4 -7 1
-7 -9 0 -11 9 -236 12 -259 3 -3 -1 -9 0 -15 1 -29 7 -92 -3 -110 -18 -19 -16
-19 -16 -6 1 14 17 -3 18 -425 16 -298 -2 -444 -6 -453 -13 -11 -8 -13 -8 -8
0 4 7 -27 11 -103 10 -61 0 -110 -4 -110 -8 0 -5 -9 -4 -20 2 -11 6 -25 8 -30
5 -5 -3 -136 -6 -291 -5 -255 0 -284 -2 -303 -17 -17 -15 -18 -15 -8 -2 11 15
3 17 -98 18 -84 1 -110 -1 -110 -11 0 -9 -3 -9 -10 2 -9 13 -10 13 -10 0 0
-10 -3 -11 -8 -4 -9 14 -104 14 -114 -1 -5 -6 -8 -6 -8 2 0 9 -66 11 -272 8
-460 -7 -547 -7 -558 0 -12 7 54 87 177 215 56 59 78 87 70 93 -8 6 -6 7 5 3
11 -3 27 4 41 17 44 42 92 82 145 120 28 21 52 42 52 45 0 4 9 12 20 17 11 6
65 38 120 73 55 34 105 62 110 62 6 0 10 5 10 10 0 6 6 10 13 10 8 0 19 10 26
23 6 12 9 14 7 5 -4 -13 12 -9 77 20 45 20 84 39 87 42 3 3 14 7 25 8 11 2 37
13 57 23 21 11 38 17 38 15 0 -3 29 6 65 19 36 14 65 23 65 20 0 -3 15 2 33
12 17 9 37 16 42 14 22 -6 164 32 158 43 -3 6 0 5 8 -1 14 -14 33 -18 26 -5
-3 4 25 8 62 10 36 1 86 5 110 10 61 10 344 6 471 -7z m-715 -1 c3 -5 1 -10
-4 -10 -6 0 -11 5 -11 10 0 6 2 10 4 10 3 0 8 -4 11 -10z m955 -5 c0 -2 -7 -5
-15 -9 -9 -3 -15 0 -15 9 0 9 6 12 15 9 8 -4 15 -7 15 -9z m650 -49 c0 -2 -7
-7 -16 -10 -8 -3 -12 -2 -9 4 6 10 25 14 25 6z m-2444 -91 c-3 -20 -16 -31
-16 -13 0 13 8 28 16 28 1 0 1 -7 0 -15z m-346 -259 c0 -2 -7 -7 -16 -10 -8
-3 -12 -2 -9 4 6 10 25 14 25 6z m-200 -440 c0 -2 -7 -7 -16 -10 -8 -3 -12 -2
-9 4 6 10 25 14 25 6z m1790 -75 c0 -5 -7 -12 -16 -15 -14 -5 -15 -4 -4 9 14
17 20 19 20 6z m780 -12 c0 -6 -4 -7 -10 -4 -5 3 -10 11 -10 16 0 6 5 7 10 4
6 -3 10 -11 10 -16z m1005 11 c-3 -5 -12 -10 -18 -10 -7 0 -6 4 3 10 19 12 23
12 15 0z m145 0 c0 -5 -2 -10 -4 -10 -3 0 -8 5 -11 10 -3 6 -1 10 4 10 6 0 11
-4 11 -10z m-2933 -15 c0 -8 -4 -12 -9 -9 -5 3 -6 10 -3 15 9 13 12 11 12 -6z
m1303 0 c0 -2 -9 -3 -19 -2 -11 0 -18 5 -15 9 4 6 34 0 34 -7z m-940 -5 c0 -5
-2 -10 -4 -10 -3 0 -8 5 -11 10 -3 6 -1 10 4 10 6 0 11 -4 11 -10z m587 4 c-3
-3 -12 -4 -19 -1 -8 3 -5 6 6 6 11 1 17 -2 13 -5z m1406 -149 c-3 -9 -8 -14
-10 -11 -3 3 -2 9 2 15 9 16 15 13 8 -4z m-348 -5 c3 -5 1 -10 -4 -10 -6 0
-11 5 -11 10 0 6 2 10 4 10 3 0 8 -4 11 -10z m190 0 c3 -5 1 -10 -4 -10 -6 0
-11 5 -11 10 0 6 2 10 4 10 3 0 8 -4 11 -10z m-2428 -16 c-3 -3 -12 -4 -19 -1
-8 3 -5 6 6 6 11 1 17 -2 13 -5z"/>
<path d="M4058 6870 c-45 -13 -108 -53 -101 -63 3 -6 1 -7 -5 -3 -15 9 -52
-15 -52 -33 0 -8 -3 -11 -7 -8 -9 10 -44 -24 -36 -36 3 -6 1 -7 -5 -3 -13 8
-43 -33 -35 -48 3 -6 3 -8 -2 -4 -4 4 -21 -9 -37 -29 -28 -36 -32 -61 -9 -55
7 1 10 -2 6 -8 -5 -8 -11 -8 -20 0 -29 24 -105 -174 -105 -271 0 -46 14 -116
25 -127 3 -4 10 0 15 8 8 13 10 12 10 -2 0 -10 -4 -18 -10 -18 -6 0 -5 -10 2
-25 6 -14 15 -25 20 -25 5 0 6 6 2 13 -4 7 -3 8 2 4 5 -5 9 -15 9 -24 0 -9 12
-25 27 -36 24 -18 29 -18 45 -6 16 12 17 12 6 -2 -11 -13 -9 -18 15 -28 51
-24 210 -22 195 2 -3 6 -1 7 5 3 19 -11 64 5 58 21 -3 8 -2 12 3 8 5 -3 20 -1
33 4 33 13 139 111 132 122 -3 5 0 8 7 7 15 -4 91 101 82 115 -3 6 -1 7 5 3 9
-5 64 79 68 103 0 3 5 15 10 26 5 11 9 61 9 110 0 70 -4 97 -18 118 -9 15 -23
27 -30 27 -6 -1 -43 -23 -80 -51 -60 -44 -67 -52 -55 -67 12 -15 11 -16 -4 -3
-27 21 -52 -3 -43 -43 16 -78 16 -95 2 -129 -23 -54 -78 -123 -112 -138 -37
-16 -90 -16 -130 0 -16 7 -31 12 -33 11 -8 -3 -62 74 -63 89 -1 9 -2 25 -3 36
0 11 12 44 27 73 15 29 25 58 21 65 -4 6 -3 9 1 4 11 -10 66 43 58 56 -3 6 -1
7 5 3 6 -4 22 0 36 9 14 9 41 15 65 14 23 -2 45 1 49 7 31 34 122 175 122 187
0 40 -103 61 -182 37z m87 -10 c-3 -5 -12 -10 -18 -10 -7 0 -6 4 3 10 19 12
23 12 15 0z m50 0 c-3 -5 -11 -10 -16 -10 -6 0 -7 5 -4 10 3 6 11 10 16 10 6
0 7 -4 4 -10z m-198 -56 c-3 -3 -12 -4 -19 -1 -8 3 -5 6 6 6 11 1 17 -2 13 -5z
m113 -138 c0 -3 -4 -8 -10 -11 -5 -3 -10 -1 -10 4 0 6 5 11 10 11 6 0 10 -2
10 -4z m173 -51 c-3 -9 -8 -14 -10 -11 -3 3 -2 9 2 15 9 16 15 13 8 -4z m-562
-108 c-10 -9 -11 -8 -5 6 3 10 9 15 12 12 3 -3 0 -11 -7 -18z m685 -27 c0 -12
-4 -16 -9 -11 -5 5 -6 14 -3 20 10 15 12 14 12 -9z m-213 -135 c-3 -9 -8 -14
-10 -11 -3 3 -2 9 2 15 9 16 15 13 8 -4z m-68 -75 c-3 -5 -12 -10 -18 -10 -7
0 -6 4 3 10 19 12 23 12 15 0z"/>
<path d="M8568 6773 c-54 -47 -59 -55 -53 -72 4 -10 2 -11 -7 -3 -10 7 -21 3
-43 -15 -19 -16 -26 -27 -17 -30 6 -2 12 -9 12 -15 0 -7 -5 -6 -14 1 -14 12
-50 -14 -174 -125 -23 -22 -56 -50 -72 -64 -17 -13 -30 -33 -30 -43 0 -11 23
-47 50 -81 100 -122 110 -135 110 -144 0 -6 4 -12 8 -14 9 -3 107 -160 143
-228 29 -54 43 -70 62 -70 24 0 114 49 121 65 8 23 -121 252 -191 338 -13 16
-23 34 -23 42 0 11 36 41 145 120 22 16 42 32 45 35 3 4 15 12 28 19 12 7 20
16 17 22 -4 5 -2 8 3 7 13 -4 102 61 103 75 3 25 -4 42 -28 74 -22 28 -28 31
-42 21 -14 -12 -14 -11 -3 4 12 15 8 24 -29 68 -23 27 -50 50 -61 50 -10 0
-37 -17 -60 -37z m167 -221 c-3 -3 -11 0 -18 7 -9 10 -8 11 6 5 10 -3 15 -9
12 -12z"/>
<path d="M3440 5195 c-86 -18 -131 -35 -124 -47 4 -7 2 -8 -5 -4 -17 11 -79
-30 -144 -96 -66 -67 -121 -171 -122 -229 0 -21 -3 -35 -7 -33 -11 7 -20 -60
-21 -159 -1 -139 10 -206 53 -304 16 -39 26 -50 38 -46 13 4 14 3 3 -5 -11 -8
-10 -13 3 -33 47 -72 227 -199 262 -185 8 3 14 1 14 -3 0 -5 19 -12 42 -16 34
-6 44 -4 56 11 13 18 14 18 7 -4 l-7 -23 113 4 c74 2 114 8 117 15 2 7 8 10
13 6 5 -3 25 0 45 6 34 11 39 10 102 -32 88 -58 152 -84 163 -66 7 10 9 8 9
-5 0 -11 5 -17 13 -14 6 2 11 10 9 16 -1 7 2 10 8 6 6 -3 19 13 30 37 11 24
29 57 39 73 30 46 27 83 -6 96 -23 8 -108 48 -121 55 -2 2 8 23 23 48 15 26
23 51 19 58 -4 7 -4 10 1 6 13 -12 32 35 50 121 17 85 19 271 3 271 -5 0 -6 4
-3 10 12 19 -15 124 -50 195 -19 40 -58 95 -87 126 -59 61 -141 115 -159 103
-7 -4 -9 -3 -6 3 4 7 -19 18 -59 29 -56 15 -67 15 -75 3 -7 -12 -9 -11 -9 2 0
13 -14 16 -87 16 -49 0 -113 -5 -143 -12z m190 -5 c0 -5 -5 -10 -11 -10 -5 0
-7 5 -4 10 3 6 8 10 11 10 2 0 4 -4 4 -10z m-210 -14 c0 -3 -4 -8 -10 -11 -5
-3 -10 -1 -10 4 0 6 5 11 10 11 6 0 10 -2 10 -4z m268 -253 c75 -47 124 -119
136 -205 6 -38 10 -46 24 -42 15 5 15 4 1 -5 -12 -8 -17 -28 -18 -78 -2 -72
-21 -156 -43 -185 -12 -16 -16 -16 -59 11 -68 43 -145 68 -167 55 -9 -6 -15
-15 -14 -19 2 -4 0 -11 -5 -14 -5 -3 -19 -26 -32 -51 -16 -31 -19 -46 -11 -48
9 -3 9 -7 -1 -13 -12 -7 -12 -12 -1 -29 12 -20 12 -20 -25 -5 -21 9 -50 28
-65 42 -16 15 -31 22 -39 18 -8 -5 -10 -4 -5 4 4 6 -4 40 -18 75 -14 36 -26
76 -26 90 0 13 -5 28 -10 31 -6 4 -8 10 -5 15 3 5 8 40 10 77 5 94 12 133 26
149 7 8 10 17 7 20 -7 7 75 94 88 94 7 0 17 7 24 15 7 8 16 12 21 9 5 -3 9 0
9 6 0 17 166 3 198 -17z m312 -687 c0 -3 -4 -8 -10 -11 -5 -3 -10 -1 -10 4 0
6 5 11 10 11 6 0 10 -2 10 -4z m-573 -182 c-3 -3 -12 -4 -19 -1 -8 3 -5 6 6 6
11 1 17 -2 13 -5z"/>
<path d="M7859 5202 c-8 -1 -102 -3 -209 -5 l-195 -2 -3 -111 c-2 -87 1 -115
12 -126 11 -12 47 -15 157 -16 78 -1 144 -4 146 -6 2 -2 4 -197 3 -434 0 -361
2 -431 14 -441 10 -9 53 -11 138 -9 112 3 123 5 133 24 16 31 8 757 -8 748 -9
-6 -9 -5 0 7 6 8 13 37 15 64 l3 50 145 3 c79 2 150 8 157 13 6 6 13 20 15 32
2 17 13 6 46 -50 24 -40 49 -71 55 -70 6 1 12 -5 13 -13 3 -34 5 -39 17 -52 7
-7 25 -34 40 -60 15 -26 33 -53 40 -60 7 -7 18 -26 25 -41 9 -21 17 -27 30
-22 13 5 14 3 5 -6 -9 -9 -6 -20 13 -49 25 -37 25 -39 25 -268 0 -168 3 -233
12 -239 6 -4 67 -6 136 -6 92 1 126 5 132 15 5 7 9 113 8 234 l-1 221 118 189
c65 104 153 244 196 312 101 159 101 182 1 182 -35 0 -53 -4 -53 -12 0 -9 -3
-9 -12 0 -7 7 -41 12 -83 12 -83 0 -80 3 -149 -117 -41 -71 -46 -85 -36 -105
10 -21 10 -22 -3 -5 -17 20 -33 7 -23 -19 3 -8 2 -13 -3 -10 -14 9 -34 -22
-27 -41 4 -10 4 -14 0 -10 -10 9 -56 -55 -50 -70 4 -9 0 -10 -19 -1 -13 6 -23
14 -22 17 1 7 -33 73 -42 81 -8 7 -25 35 -52 88 -15 28 -29 42 -43 43 -18 0
-18 2 -4 7 15 6 13 12 -13 50 -16 23 -29 47 -29 52 0 5 -12 16 -28 24 -21 11
-76 14 -260 12 -127 0 -232 -4 -232 -8 0 -4 -7 -5 -15 -2 -15 6 -210 11 -236
6z m1336 -22 c3 -5 2 -10 -4 -10 -5 0 -13 5 -16 10 -3 6 -2 10 4 10 5 0 13 -4
16 -10z m-1595 -204 c0 -3 -4 -8 -10 -11 -5 -3 -10 -1 -10 4 0 6 5 11 10 11 6
0 10 -2 10 -4z m30 -10 c0 -3 -4 -8 -10 -11 -5 -3 -10 -1 -10 4 0 6 5 11 10
11 6 0 10 -2 10 -4z m410 -36 c0 -5 -2 -10 -4 -10 -3 0 -8 5 -11 10 -3 6 -1
10 4 10 6 0 11 -4 11 -10z m1120 -70 c0 -5 -2 -10 -4 -10 -3 0 -8 5 -11 10 -3
6 -1 10 4 10 6 0 11 -4 11 -10z m-445 -420 c3 -5 1 -10 -4 -10 -6 0 -11 5 -11
10 0 6 2 10 4 10 3 0 8 -4 11 -10z"/>
<path d="M4387 5194 c-2 -2 -45 -5 -96 -5 -76 -1 -93 -4 -99 -17 -4 -9 -6
-107 -5 -217 2 -110 3 -273 3 -363 0 -168 10 -268 36 -336 21 -54 53 -98 66
-90 6 4 8 2 4 -4 -6 -11 55 -64 110 -94 39 -22 179 -44 259 -42 192 4 289 45
383 159 20 23 55 106 48 112 -3 4 -1 12 6 20 7 9 13 74 15 178 3 150 2 164
-14 168 -16 4 -16 5 -1 6 15 1 17 18 17 179 1 117 -3 172 -9 162 -6 -9 -10
-10 -10 -3 0 6 4 14 9 17 11 7 12 138 1 157 -7 11 -36 14 -135 14 -70 -1 -129
-5 -135 -11 -10 -10 -11 -53 -11 -483 0 -134 -2 -248 -6 -253 -3 -6 1 -14 8
-19 10 -6 11 -9 2 -9 -7 0 -13 -12 -13 -26 0 -38 -35 -81 -78 -95 -33 -11 -93
-13 -162 -7 -26 3 -74 54 -86 91 -4 12 -14 28 -23 34 -14 12 -14 12 3 6 12 -4
17 -3 13 4 -3 5 -7 174 -8 375 0 201 -4 371 -9 377 -7 12 -74 24 -83 15z m713
-104 c0 -5 -2 -10 -4 -10 -3 0 -8 5 -11 10 -3 6 -1 10 4 10 6 0 11 -4 11 -10z
m-883 -122 c-3 -7 -5 -2 -5 12 0 14 2 19 5 13 2 -7 2 -19 0 -25z m247 -14 c3
-8 2 -12 -4 -9 -6 3 -10 10 -10 16 0 14 7 11 14 -7z m396 -324 c0 -5 -2 -10
-4 -10 -3 0 -8 5 -11 10 -3 6 -1 10 4 10 6 0 11 -4 11 -10z m-646 -106 c3 -8
2 -12 -4 -9 -6 3 -10 10 -10 16 0 14 7 11 14 -7z m653 10 c-3 -3 -12 -4 -19
-1 -8 3 -5 6 6 6 11 1 17 -2 13 -5z m224 -117 c-10 -9 -11 -8 -5 6 3 10 9 15
12 12 3 -3 0 -11 -7 -18z m-561 -101 c0 -3 -4 -8 -10 -11 -5 -3 -10 -1 -10 4
0 6 5 11 10 11 6 0 10 -2 10 -4z m45 -266 c3 -6 -1 -7 -9 -4 -18 7 -21 14 -7
14 6 0 13 -4 16 -10z"/>
<path d="M5540 5168 c-11 -18 -22 -45 -26 -61 -3 -15 -12 -40 -20 -55 -8 -15
-14 -31 -14 -35 0 -5 -6 -23 -14 -40 -46 -107 -65 -160 -60 -168 3 -5 0 -9 -5
-9 -6 0 -10 -3 -9 -7 1 -5 -3 -18 -10 -31 -7 -12 -10 -27 -7 -32 3 -6 1 -10
-6 -10 -6 0 -9 -8 -6 -19 3 -12 -1 -22 -9 -25 -8 -3 -13 -9 -12 -13 1 -4 -3
-18 -10 -31 -7 -12 -10 -27 -7 -32 3 -6 1 -10 -6 -10 -6 0 -9 -8 -6 -20 3 -11
2 -18 -2 -16 -3 2 -15 -17 -25 -42 -10 -26 -24 -60 -31 -77 -7 -16 -33 -84
-58 -150 -25 -66 -52 -136 -60 -155 -8 -19 -12 -42 -9 -50 8 -23 35 -40 48
-29 6 5 14 6 18 2 13 -14 46 -10 46 6 0 12 2 13 8 3 13 -19 148 -21 167 -1 16
15 78 189 70 197 -2 2 2 11 10 19 12 11 53 14 201 15 l187 0 14 -33 c8 -19 28
-70 44 -113 16 -44 35 -83 41 -88 22 -13 156 -10 161 5 4 10 6 10 6 0 2 -21
108 -17 120 5 9 16 11 16 23 0 7 -10 22 -16 33 -14 11 2 25 1 30 -2 20 -12
228 -3 237 10 6 10 8 10 8 0 0 -17 496 -17 506 0 13 20 11 208 -1 225 -10 13
-33 17 -118 18 -68 1 -104 -2 -100 -8 4 -6 1 -7 -8 -1 -18 11 -89 12 -89 1 0
-4 -5 -5 -12 -1 -17 11 -181 13 -194 2 -9 -6 -11 1 -8 27 2 26 0 34 -9 28 -9
-5 -9 -3 -1 8 18 21 10 549 -8 560 -10 7 -10 9 0 9 9 0 12 31 12 119 0 83 -4
122 -12 129 -17 13 -232 16 -257 3 -18 -10 -20 -23 -20 -177 -1 -131 1 -164
11 -158 10 6 10 5 1 -7 -8 -10 -12 -55 -12 -129 0 -63 -1 -227 -1 -365 l-1
-250 -54 135 c-30 74 -61 146 -68 160 -7 14 -20 44 -27 68 -7 23 -17 42 -22
42 -4 0 -7 3 -6 8 5 13 -25 91 -32 87 -4 -3 -7 3 -6 13 0 9 -4 16 -11 15 -7
-2 -10 4 -7 12 8 21 -126 356 -139 348 -6 -4 -7 -1 -2 6 4 7 0 31 -10 54 -45
109 -61 143 -70 149 -17 13 -95 9 -95 -4 0 -10 -2 -10 -8 -1 -4 7 -37 12 -85
12 -77 0 -78 0 -97 -31z m840 2 c0 -5 -5 -10 -11 -10 -5 0 -7 5 -4 10 3 6 8
10 11 10 2 0 4 -4 4 -10z m175 -150 c3 -5 1 -10 -4 -10 -6 0 -11 5 -11 10 0 6
2 10 4 10 3 0 8 -4 11 -10z m-864 -187 c13 -16 12 -17 -3 -4 -10 7 -18 15 -18
17 0 8 8 3 21 -13z m47 -160 c23 -64 40 -118 38 -120 -2 -2 -44 -5 -93 -6 -77
-2 -89 0 -82 13 26 53 47 120 36 120 -7 0 -4 5 5 10 9 6 20 25 24 43 8 34 11
44 13 52 5 22 23 -12 59 -112z m13 24 c-10 -9 -11 -8 -5 6 3 10 9 15 12 12 3
-3 0 -11 -7 -18z m1349 -417 c0 -5 -5 -10 -11 -10 -5 0 -7 5 -4 10 3 6 8 10
11 10 2 0 4 -4 4 -10z"/>
<path d="M7152 5188 c-15 -15 -16 -181 -2 -208 7 -13 7 -21 0 -25 -5 -3 -10
-16 -10 -28 0 -18 2 -19 10 -7 6 9 10 10 10 3 0 -6 -4 -14 -9 -17 -4 -3 -8
-192 -7 -421 1 -358 3 -417 16 -425 20 -13 222 -13 254 0 l26 10 -1 255 c-1
161 -5 255 -12 255 -6 0 -6 4 1 13 15 18 14 360 -1 369 -7 5 -8 8 -1 8 11 0
11 173 -1 209 -6 20 -14 21 -134 21 -85 0 -131 -4 -139 -12z m23 -68 c-3 -5
-11 -10 -16 -10 -6 0 -7 5 -4 10 3 6 11 10 16 10 6 0 7 -4 4 -10z m245 -480
c0 -5 -4 -10 -10 -10 -5 0 -10 5 -10 10 0 6 5 10 10 10 6 0 10 -4 10 -10z m-5
-420 c3 -5 1 -10 -4 -10 -6 0 -11 5 -11 10 0 6 2 10 4 10 3 0 8 -4 11 -10z
m-100 -140 c3 -5 1 -10 -4 -10 -6 0 -11 5 -11 10 0 6 2 10 4 10 3 0 8 -4 11
-10z"/>
<path d="M7646 3773 c-2 -2 -145 -3 -319 -3 -239 -1 -317 -4 -320 -13 -4 -9
-6 -9 -6 1 -1 18 -41 15 -65 -5 -17 -15 -19 -15 -8 -1 12 15 3 16 -110 15 -75
0 -126 -5 -130 -11 -5 -7 -8 -7 -8 1 0 10 -68 12 -317 8 -175 -3 -539 -6 -810
-7 -271 -1 -490 -5 -487 -10 3 -4 0 -8 -5 -8 -6 0 -11 4 -11 8 0 4 -53 7 -117
6 -65 -2 -175 -3 -246 -4 -96 -1 -126 -4 -120 -13 5 -9 3 -9 -8 0 -11 9 -84
13 -269 13 -228 0 -254 -2 -267 -18 -8 -9 -12 -11 -8 -4 9 17 -22 27 -40 12
-17 -14 -20 -60 -4 -60 5 0 8 -4 4 -9 -3 -5 0 -15 7 -23 7 -7 14 -19 15 -25 4
-17 65 -117 77 -125 6 -4 7 -8 3 -8 -9 0 43 -79 69 -104 8 -9 12 -16 7 -16 -4
0 -1 -6 7 -13 8 -7 28 -31 43 -55 15 -24 34 -45 42 -49 8 -3 15 -10 15 -17 0
-16 100 -122 112 -118 5 1 7 -2 4 -7 -8 -13 46 -63 61 -57 7 3 10 -1 7 -8 -6
-16 114 -129 128 -120 6 4 8 3 4 -4 -8 -13 70 -76 84 -67 5 3 8 0 5 -7 -6 -16
61 -61 77 -52 6 4 8 3 5 -3 -4 -6 0 -16 8 -23 8 -7 15 -9 15 -5 0 5 8 -1 18
-11 23 -26 72 -57 79 -50 4 3 13 -3 20 -14 8 -11 19 -18 24 -15 5 4 9 1 9 -5
0 -6 10 -15 23 -20 12 -6 42 -23 67 -38 25 -16 63 -35 85 -44 22 -9 58 -24 80
-34 22 -10 42 -18 45 -19 3 0 20 -9 38 -19 27 -14 36 -15 48 -5 12 10 13 9 8
-5 -4 -9 -1 -16 6 -16 7 0 26 -6 43 -14 110 -47 460 -127 547 -124 8 0 42 -5
75 -10 74 -13 479 -8 555 6 30 6 75 14 100 17 51 6 137 24 160 32 8 3 23 7 33
8 11 1 22 8 27 15 4 7 13 9 19 6 14 -9 73 3 67 12 -2 4 12 8 31 9 19 1 40 6
46 11 7 5 34 15 60 22 29 8 46 18 43 25 -2 6 2 12 10 12 7 0 10 -5 7 -10 -4
-6 -1 -7 8 -1 8 4 22 10 31 11 35 5 279 129 271 137 -4 5 -3 6 3 3 12 -7 40
10 209 122 108 71 177 129 169 143 -3 4 1 5 8 3 18 -7 140 103 132 117 -4 6
-2 8 3 5 12 -8 175 164 251 264 89 116 162 231 155 242 -3 5 -2 7 4 4 10 -6
29 23 83 132 27 54 30 68 21 88 l-11 24 -416 -3 c-228 -2 -417 -4 -418 -5z
m272 -28 c-3 -3 -9 2 -12 12 -6 14 -5 15 5 6 7 -7 10 -15 7 -18z m-208 11 c0
-3 -4 -8 -10 -11 -5 -3 -10 -1 -10 4 0 6 5 11 10 11 6 0 10 -2 10 -4z m-2363
-28 c-3 -8 -6 -5 -6 6 -1 11 2 17 5 13 3 -3 4 -12 1 -19z m267 7 c-10 -8 -23
-15 -28 -15 -6 0 -1 7 10 15 10 8 23 15 28 15 6 0 1 -7 -10 -15z m626 -1 c0
-2 -7 -4 -15 -4 -8 0 -15 4 -15 10 0 5 7 7 15 4 8 -4 15 -8 15 -10z m1315
-144 c3 -5 1 -10 -4 -10 -6 0 -11 5 -11 10 0 6 2 10 4 10 3 0 8 -4 11 -10z
m-2470 -39 c-6 -5 -25 10 -25 20 0 5 6 4 14 -3 8 -7 12 -15 11 -17z m1655 25
c0 -3 -4 -8 -10 -11 -5 -3 -10 -1 -10 4 0 6 5 11 10 11 6 0 10 -2 10 -4z m380
-22 c24 -2 40 1 40 8 0 7 5 7 13 1 6 -5 59 -8 117 -6 58 2 122 4 143 5 20 1
37 6 37 12 0 6 4 5 9 -3 6 -10 29 -14 73 -13 611 5 612 5 595 -13 -8 -8 -25
-31 -38 -52 -13 -21 -34 -49 -46 -63 -25 -27 -31 -46 -10 -34 7 4 9 3 4 -2 -5
-5 -12 -9 -17 -9 -4 0 -23 -16 -41 -35 -131 -141 -222 -229 -309 -299 -23 -19
-48 -41 -56 -48 -7 -7 -15 -13 -18 -13 -16 0 -44 -35 -38 -49 5 -13 3 -14 -10
-3 -13 10 -18 9 -29 -4 -7 -9 -22 -20 -34 -25 -11 -5 -45 -25 -75 -44 -30 -19
-70 -42 -87 -51 -18 -9 -33 -20 -33 -25 0 -5 -9 -9 -21 -9 -13 0 -18 -4 -13
-12 4 -7 3 -8 -4 -4 -17 10 -152 -56 -152 -74 0 -12 -2 -13 -9 -1 -5 7 -13 11
-19 7 -19 -12 -206 -76 -267 -92 -65 -17 -70 -18 -160 -35 -33 -6 -67 -13 -75
-14 -8 -2 -24 -4 -35 -4 -17 -1 -17 -3 -5 -11 9 -6 10 -10 3 -10 -6 0 -15 5
-18 10 -4 6 -10 8 -14 6 -29 -18 -409 -23 -555 -8 -50 6 -96 8 -103 5 -7 -3
-13 0 -13 5 0 6 -8 10 -17 10 -50 -3 -324 73 -442 122 -41 16 -76 28 -79 26
-2 -3 -11 2 -19 10 -9 8 -22 13 -30 10 -9 -4 -11 -2 -7 6 5 8 -2 9 -22 4 -21
-5 -25 -4 -14 4 8 5 12 10 8 10 -3 0 -14 3 -24 7 -13 5 -15 3 -9 -7 5 -9 4
-11 -4 -6 -6 4 -9 11 -7 15 3 4 -29 25 -71 47 -168 86 -385 249 -532 398 -47
47 -89 82 -94 79 -6 -3 -7 -1 -4 4 11 18 -75 119 -92 108 -6 -3 -9 0 -5 8 3 8
-2 20 -11 27 -8 7 -15 17 -15 22 0 5 -11 24 -25 42 -14 18 -25 35 -25 37 0 2
12 5 28 5 15 1 45 2 67 3 22 1 143 2 270 2 166 0 232 4 237 12 6 9 8 9 8 0 0
-19 40 -16 64 5 20 16 20 16 6 -2 -14 -18 -1 -18 565 -13 319 3 765 7 990 8
289 1 414 5 424 13 12 8 13 8 7 -2 -5 -9 4 -12 39 -10 36 1 45 4 40 16 -5 12
-3 13 10 2 9 -7 34 -14 55 -16z m-2860 -4 c0 -5 -2 -10 -4 -10 -3 0 -8 5 -11
10 -3 6 -1 10 4 10 6 0 11 -4 11 -10z m-125 -98 c-3 -3 -11 0 -18 7 -9 10 -8
11 6 5 10 -3 15 -9 12 -12z m500 -321 c3 -5 2 -12 -3 -15 -5 -3 -9 1 -9 9 0
17 3 19 12 6z m3065 -101 c0 -5 -5 -10 -11 -10 -5 0 -7 5 -4 10 3 6 8 10 11
10 2 0 4 -4 4 -10z m30 -200 c0 -5 -2 -10 -4 -10 -3 0 -8 5 -11 10 -3 6 -1 10
4 10 6 0 11 -4 11 -10z m-2622 -245 c-3 -3 -9 2 -12 12 -6 14 -5 15 5 6 7 -7
10 -15 7 -18z m1792 21 c0 -3 -4 -8 -10 -11 -5 -3 -10 -1 -10 4 0 6 5 11 10
11 6 0 10 -2 10 -4z m-1730 -46 c0 -5 -5 -10 -11 -10 -5 0 -7 5 -4 10 3 6 8
10 11 10 2 0 4 -4 4 -10z m1600 -170 c0 -5 -2 -10 -4 -10 -3 0 -8 5 -11 10 -3
6 -1 10 4 10 6 0 11 -4 11 -10z m-690 -50 c0 -5 -5 -10 -11 -10 -5 0 -7 5 -4
10 3 6 8 10 11 10 2 0 4 -4 4 -10z"/>
<path d="M3650 3219 c-100 -19 -197 -87 -242 -171 -20 -36 -23 -57 -22 -138 0
-97 10 -139 55 -234 12 -26 26 -46 32 -46 6 0 7 -3 4 -6 -16 -16 174 -224 205
-224 5 0 22 -10 37 -21 16 -12 34 -18 40 -15 6 4 11 3 11 -3 0 -14 66 -31 120
-31 47 0 125 22 114 32 -3 3 3 5 12 4 30 -2 28 34 -5 79 -17 24 -47 67 -66 96
-19 30 -35 50 -35 45 0 -5 -6 -4 -12 2 -8 5 -22 6 -33 1 -31 -12 -104 -10
-121 4 -50 40 -108 104 -120 133 -8 19 -18 34 -22 34 -4 0 -5 22 -4 49 3 37
11 57 33 82 16 18 29 36 29 41 0 4 3 7 8 6 4 -2 23 7 42 19 112 69 261 -23
300 -184 5 -21 4 -33 -2 -33 -6 0 -8 -6 -5 -14 3 -8 1 -16 -6 -19 -12 -4 23
-42 74 -80 102 -79 136 -85 156 -27 13 38 17 142 6 153 -3 4 -8 19 -9 34 -4
37 -59 139 -74 135 -6 -1 -9 2 -6 7 14 22 -152 195 -215 223 -16 7 -29 17 -29
22 0 4 -11 6 -25 4 -13 -3 -22 -1 -19 3 6 10 -36 28 -79 35 -68 10 -85 10
-127 3z m-110 -73 c0 -3 -4 -8 -10 -11 -5 -3 -10 -1 -10 4 0 6 5 11 10 11 6 0
10 -2 10 -4z m550 -146 c0 -5 -5 -10 -11 -10 -5 0 -7 5 -4 10 3 6 8 10 11 10
2 0 4 -4 4 -10z m-45 -320 c3 -6 -1 -7 -9 -4 -18 7 -21 14 -7 14 6 0 13 -4 16
-10z m55 -40 c0 -5 -5 -10 -11 -10 -5 0 -7 5 -4 10 3 6 8 10 11 10 2 0 4 -4 4
-10z m115 -29 c3 -5 2 -12 -3 -15 -5 -3 -9 1 -9 9 0 17 3 19 12 6z m-314 -58
c13 -16 12 -17 -3 -4 -17 13 -22 21 -14 21 2 0 10 -8 17 -17z m-253 -98 c-3
-3 -9 2 -12 12 -6 14 -5 15 5 6 7 -7 10 -15 7 -18z"/>
<path d="M9041 3029 c-13 -12 -32 -40 -42 -63 -10 -23 -19 -37 -19 -32 0 5
-27 -29 -60 -75 -33 -46 -70 -96 -82 -111 -13 -15 -38 -45 -57 -67 -30 -36
-36 -39 -55 -29 -11 7 -25 11 -29 10 -5 -1 -6 1 -3 6 3 4 -13 24 -35 43 -22
19 -72 64 -112 101 -101 93 -125 110 -139 102 -8 -5 -9 -2 -5 9 4 11 -2 22
-18 33 -29 19 -32 17 -104 -60 -25 -27 -54 -57 -63 -65 -10 -8 -18 -22 -18
-31 0 -25 158 -180 178 -174 12 4 13 3 5 -3 -10 -7 2 -25 42 -69 31 -32 61
-57 68 -56 7 2 9 1 5 -3 -8 -9 23 -45 39 -45 7 0 12 -4 11 -8 -5 -13 108 -122
126 -122 9 0 16 5 16 11 0 5 5 7 10 4 6 -3 10 1 10 10 0 9 4 14 9 11 11 -7
101 89 101 109 0 9 4 14 10 10 16 -10 80 67 74 90 -4 14 -3 16 4 7 7 -11 20 0
56 43 48 59 57 82 30 71 -9 -3 -12 -2 -9 5 4 5 14 8 23 5 12 -4 32 15 69 68
29 40 58 85 64 100 7 14 15 26 19 26 10 0 30 47 30 70 0 12 -21 31 -57 54 -32
20 -60 36 -63 36 -4 0 -17 -10 -29 -21z m-691 -103 c0 -3 -4 -8 -10 -11 -5 -3
-10 -1 -10 4 0 6 5 11 10 11 6 0 10 -2 10 -4z m-115 -116 c3 -5 1 -10 -4 -10
-6 0 -11 5 -11 10 0 6 2 10 4 10 3 0 8 -4 11 -10z m205 -214 c0 -3 -4 -8 -10
-11 -5 -3 -10 -1 -10 4 0 6 5 11 10 11 6 0 10 -2 10 -4z"/>
<path d="M8010 2599 c-25 -6 -52 -13 -60 -16 -8 -4 -17 -7 -20 -7 -6 -1 -124
-58 -129 -62 -2 -2 2 -10 9 -19 7 -9 8 -15 2 -15 -6 0 -12 5 -14 12 -3 8 -16
5 -41 -11 -21 -12 -35 -27 -31 -32 3 -5 0 -8 -8 -7 -7 2 -12 -2 -11 -9 2 -7
-3 -10 -11 -7 -16 6 -112 -100 -110 -122 1 -8 -2 -11 -7 -8 -5 3 -9 -1 -9 -10
0 -8 -4 -16 -10 -18 -20 -7 -47 -146 -39 -203 15 -112 93 -226 184 -269 51
-24 158 -32 237 -17 68 13 210 77 245 110 12 12 25 21 28 21 29 0 178 168 187
211 2 8 7 17 11 20 4 3 9 17 11 30 2 13 6 35 9 49 23 92 7 166 -54 247 -39 52
-74 80 -82 65 -2 -4 -2 -1 -1 5 4 16 -53 46 -72 39 -8 -3 -13 -2 -10 3 13 21
-134 35 -204 20z m70 -9 c0 -5 -5 -10 -11 -10 -5 0 -7 5 -4 10 3 6 8 10 11 10
2 0 4 -4 4 -10z m21 -223 c18 -12 47 -42 63 -65 26 -36 31 -53 31 -102 0 -32
-3 -56 -7 -54 -5 3 -8 1 -8 -4 0 -4 -16 -27 -35 -49 -19 -22 -31 -44 -27 -48
4 -5 1 -5 -6 -1 -8 5 -21 1 -30 -7 -56 -50 -190 -70 -229 -35 -12 11 -26 17
-33 13 -6 -4 -9 -1 -8 7 2 7 -2 12 -9 11 -7 -2 -10 3 -7 11 3 7 -2 20 -10 29
-8 8 -12 17 -9 21 4 3 2 6 -4 6 -5 0 -11 24 -12 54 -2 43 3 63 23 94 73 116
233 176 317 119z"/>
<path d="M4325 2538 c-134 -37 -245 -183 -245 -322 0 -37 3 -46 18 -46 13 0
14 -2 4 -9 -11 -7 -11 -16 -1 -50 7 -22 16 -41 21 -41 4 0 7 -3 6 -7 -1 -5 4
-18 11 -31 11 -20 15 -21 29 -10 15 12 16 11 3 -5 -12 -15 -11 -20 4 -37 15
-16 21 -18 34 -7 14 10 14 10 4 -4 -10 -12 -5 -22 32 -58 24 -23 80 -64 126
-91 82 -50 106 -60 93 -39 -4 7 -1 10 7 7 8 -3 13 -10 12 -16 -3 -12 42 -28
101 -37 22 -3 42 -8 44 -10 3 -3 12 1 20 8 13 10 14 9 8 -1 -6 -11 4 -12 53
-7 69 7 136 33 181 71 32 27 96 114 84 114 -3 0 -2 6 4 13 18 21 26 68 27 147
0 66 -4 84 -34 144 -43 87 -177 226 -202 210 -5 -3 -9 -1 -9 5 0 16 -88 64
-101 55 -7 -4 -9 -3 -6 3 8 13 -20 26 -35 16 -7 -3 -8 -1 -4 5 4 7 1 13 -6 13
-44 5 -56 7 -73 16 -28 13 -162 14 -210 1z m160 -188 c-4 -6 6 -10 24 -10 16
0 42 -5 58 -11 19 -7 29 -7 31 0 2 6 11 11 20 11 13 0 14 -2 4 -9 -11 -6 -6
-14 20 -31 61 -43 90 -75 119 -134 28 -58 38 -85 20 -57 -8 12 -11 9 -16 -11
-4 -15 -4 -32 1 -39 4 -7 3 -10 -3 -6 -5 3 -18 -10 -27 -31 -10 -20 -26 -42
-37 -50 -11 -7 -16 -19 -13 -25 4 -7 4 -9 0 -5 -4 3 -28 1 -52 -7 -25 -7 -46
-9 -50 -4 -3 5 -16 9 -30 9 -14 0 -38 7 -55 15 -16 9 -34 13 -40 10 -5 -4 -8
-3 -7 2 2 8 -99 112 -104 107 -5 -4 -11 47 -12 98 -1 54 31 101 105 155 49 35
53 37 44 23z m505 -240 c0 -5 -2 -10 -4 -10 -3 0 -8 5 -11 10 -3 6 -1 10 4 10
6 0 11 -4 11 -10z m-9 -53 c-10 -9 -11 -8 -5 6 3 10 9 15 12 12 3 -3 0 -11 -7
-18z"/>
<path d="M5176 2194 c-8 -7 -22 -35 -31 -61 -10 -27 -24 -63 -32 -80 -24 -56
-43 -116 -39 -121 3 -2 -2 -11 -10 -19 -9 -9 -12 -23 -8 -35 4 -13 2 -18 -4
-14 -10 6 -29 -31 -36 -70 -3 -12 -9 -30 -15 -40 -12 -24 -71 -171 -71 -179 0
-3 4 -3 10 0 5 3 7 0 4 -8 -4 -11 17 -23 78 -47 103 -39 141 -46 154 -28 14
17 25 48 70 193 l37 120 24 -54 c21 -47 25 -52 40 -40 15 13 15 12 3 -7 -12
-19 -9 -29 24 -88 20 -36 42 -66 47 -66 6 0 7 -5 4 -10 -9 -14 14 -42 28 -33
6 3 7 1 3 -5 -8 -13 13 -56 46 -94 16 -19 30 -26 46 -23 12 2 22 0 22 -5 0 -8
69 -23 115 -24 11 -1 25 -4 30 -7 6 -4 20 -3 31 1 21 8 33 49 49 175 3 22 7
56 10 75 2 19 7 58 11 85 3 28 7 59 9 70 11 54 25 157 31 212 6 59 5 63 -17
72 -36 14 -166 32 -183 25 -13 -5 -24 -38 -31 -94 -1 -8 -5 -22 -8 -30 -14
-38 -16 -80 -4 -80 7 0 4 -5 -5 -10 -11 -7 -19 -30 -23 -65 -4 -30 -10 -53
-14 -51 -3 3 -17 26 -31 53 -14 26 -31 52 -38 56 -7 5 -10 12 -7 17 3 5 -9 42
-28 82 -19 40 -45 100 -59 133 -25 62 -40 75 -128 105 -84 28 -90 29 -104 14z
m108 -358 c-3 -9 -10 -16 -15 -16 -6 0 -5 9 1 21 13 24 24 20 14 -5z m322 -44
c-17 -16 -18 -16 -5 5 7 12 15 20 18 17 3 -2 -3 -12 -13 -22z m-75 -19 c13
-16 12 -17 -3 -4 -10 7 -18 15 -18 17 0 8 8 3 21 -13z m61 -90 c-5 -10 -7 -25
-5 -33 4 -13 3 -13 -6 -1 -9 14 2 51 15 51 2 0 1 -8 -4 -17z m-195 -37 c0 -8
-6 -12 -15 -9 -11 5 -11 7 0 14 7 5 13 9 14 9 0 0 1 -6 1 -14z"/>
<path d="M7147 2164 c-32 -6 -70 -17 -85 -23 -30 -11 -157 -42 -293 -71 -48
-10 -93 -21 -98 -25 -17 -10 -13 -33 7 -45 16 -11 16 -11 -1 -6 -15 5 -17 2
-12 -14 4 -12 8 -35 10 -53 3 -29 8 -59 20 -127 2 -14 7 -45 10 -70 4 -25 10
-46 14 -48 4 -1 6 -16 5 -34 -3 -37 5 -60 17 -52 5 3 5 -5 1 -17 -9 -23 16
-183 32 -207 5 -9 20 -12 45 -8 20 3 46 5 59 6 13 0 21 3 19 8 -3 4 13 8 35 9
22 0 45 6 50 11 6 6 16 8 23 5 26 -9 33 30 18 97 -22 94 -24 99 -34 70 l-8
-25 2 25 c1 14 -3 32 -8 40 -8 13 -7 13 8 1 15 -12 16 -11 11 17 -5 27 -3 32
17 37 34 8 118 12 121 6 6 -13 188 -101 207 -101 12 0 21 -4 21 -8 0 -5 18
-16 39 -24 39 -16 69 -10 57 11 -4 6 -3 11 3 11 5 0 11 -5 13 -11 2 -7 13 -6
33 2 17 7 35 13 40 14 25 6 121 50 137 62 31 27 14 54 -49 78 -26 9 -76 30
-109 46 -34 15 -85 35 -114 45 -51 17 -52 18 -32 33 108 85 92 258 -30 318
-54 27 -124 41 -113 23 5 -9 3 -10 -11 -3 -12 6 -41 5 -77 -3z m-257 -88 c0
-2 -6 -9 -14 -15 -11 -9 -16 -9 -22 0 -4 7 -3 9 4 5 6 -3 13 -2 17 4 6 10 15
14 15 6z m315 -125 c7 -18 -9 -37 -49 -57 -30 -15 -40 -18 -88 -29 -12 -2 -24
-8 -27 -12 -3 -5 -27 -9 -52 -11 -41 -2 -47 0 -53 20 -13 49 -9 54 72 77 42
13 84 26 92 29 8 3 27 5 43 4 16 0 25 4 21 9 -3 6 3 5 15 -3 11 -7 23 -19 26
-27z m479 -297 c3 -8 2 -12 -4 -9 -6 3 -10 10 -10 16 0 14 7 11 14 -7z"/>
<path d="M6529 2036 c-2 -2 -33 -6 -68 -10 -36 -3 -68 -11 -73 -18 -6 -10 -8
-10 -8 0 0 9 -31 12 -121 12 -93 0 -119 -3 -113 -12 6 -10 4 -10 -7 -2 -20 16
-129 26 -129 11 0 -8 -4 -7 -12 1 -14 14 -74 16 -82 3 -4 -5 0 -12 6 -14 9 -4
7 -6 -3 -6 -22 -1 -36 -110 -17 -123 7 -4 9 -8 4 -8 -6 0 -6 -4 0 -10 5 -5 59
-13 119 -16 61 -3 111 -7 113 -9 5 -5 3 -466 -3 -474 -2 -4 2 -17 11 -29 13
-19 24 -21 122 -20 59 0 115 4 125 9 15 9 17 23 16 110 -1 59 -5 99 -11 99 -6
0 -5 6 2 15 6 8 9 18 6 23 -3 5 -6 54 -7 110 -1 68 -5 102 -13 102 -7 0 -6 3
2 8 9 6 10 16 3 33 -9 24 -7 25 21 21 19 -3 33 1 39 9 5 8 9 9 9 3 0 -18 152
4 168 24 15 19 8 128 -10 149 -9 12 -79 19 -89 9z m8 -22 c-3 -3 -12 -4 -19
-1 -8 3 -5 6 6 6 11 1 17 -2 13 -5z m-200 -17 c0 -7 -9 -13 -19 -13 -18 0 -18
1 -2 13 10 7 18 13 19 13 1 0 2 -6 2 -13z m-207 -7 c0 -5 -2 -10 -4 -10 -3 0
-8 5 -11 10 -3 6 -1 10 4 10 6 0 11 -4 11 -10z m45 -160 c3 -6 -1 -7 -9 -4
-18 7 -21 14 -7 14 6 0 13 -4 16 -10z m5 -294 c0 -11 -19 -15 -25 -6 -3 5 1
10 9 10 9 0 16 -2 16 -4z m210 -26 c0 -5 -2 -10 -4 -10 -3 0 -8 5 -11 10 -3 6
-1 10 4 10 6 0 11 -4 11 -10z m-222 -135 c-3 -3 -9 2 -12 12 -6 14 -5 15 5 6
7 -7 10 -15 7 -18z"/>
</g>
</svg>
